:SAMPLES-PER-SECOND 30
:FRAME-RANGE 1-2009
:FULLY-SPECIFIED
:DEGREES
691
root  -36.5721 38.6523 -143.451 8.07669 19.8304 -6.48362
RightUpLeg  -7.82756 -20.6735 -6.47816
RightLeg  19.9865 -9.81878 -4.14214
RightFoot  -3.92223 -1.20489 18.03
RightToes  4.71047e-010 1.2921e-014 -6.02303e-014
Spine  11.1016 1.9868 -5.58799
Spine1  0.954655 0.886752 2.95953
HEad  -8.01526 51.9856 -14.4806
LeftShoulder1  1.07849 -1.45485 -14.8875
LeftArm  -15.1357 -31.0002 4.65395
LeftForeArm  18.9906 2.17711 -17.5493
LeftHand  0.190773 0.385864 -4.51969
RightShoulder  9.54578 12.2232 53.0859
RightArm  11.3244 1.10449 13.6818
RightForeArm  17.3253 8.54047 13.8696
RightHand  0.290035 -0.226324 6.58756
LeftUpLeg  -30.3937 20.6445 7.60163
LeftLeg  20.303 -4.26799 -1.41695
LeftFoot  -0.813205 0.772126 -8.31866
LeftToes  2.15783e-011 -7.56106e-012 -8.20802e-012
692
root  -36.1985 38.8591 -143.284 8.5539 20.7372 -7.17404
RightUpLeg  -10.314 -21.2755 -4.04602
RightLeg  24.7887 -9.14633 -4.8002
RightFoot  -4.72803 -1.12734 18.7929
RightToes  4.71047e-010 1.2921e-014 -6.02303e-014
Spine  11.5709 1.85817 -6.41638
Spine1  1.1401 0.625635 3.24428
HEad  -7.02538 51.2375 -13.6026
LeftShoulder1  1.05104 -1.49481 -14.0953
LeftArm  -3.0359 -31.2803 4.48181
LeftForeArm  13.5228 -2.83912 -17.8943
LeftHand  0.129147 1.56455 -4.24992
RightShoulder  9.57444 12.3449 52.8445
RightArm  16.9758 0.782121 14.0353
RightForeArm  13.208 12.0518 12.3729
RightHand  0.299943 -0.184739 6.75072
LeftUpLeg  -30.2584 21.1491 7.30109
LeftLeg  18.7689 -5.43715 -1.74072
LeftFoot  -0.707832 0.770991 -8.23064
LeftToes  2.15783e-011 -7.56106e-012 -8.20802e-012
693
root  -35.8251 39.0257 -143.089 8.98445 21.4365 -7.55139
RightUpLeg  -12.9475 -20.3902 -2.18827
RightLeg  30.5368 -10.3556 -6.76428
RightFoot  -5.45798 -0.980768 18.214
RightToes  4.71047e-010 1.2921e-014 -6.02303e-014
Spine  12.1432 1.6868 -6.81377
Spine1  0.870538 0.468371 2.97404
HEad  -5.50644 50.4049 -12.0785
LeftShoulder1  1.02678 -1.64728 -12.8936
LeftArm  4.85278 -31.1193 3.61357
LeftForeArm  11.8981 -6.82014 -16.9889
LeftHand  0.145672 -0.207953 -3.02191
RightShoulder  9.29703 11.9844 52.5205
RightArm  24.5919 0.335385 14.408
RightForeArm  5.92668 16.5776 9.56231
RightHand  0.317854 -0.594798 7.82749
LeftUpLeg  -29.8576 21.0192 7.22567
LeftLeg  17.5799 -5.89214 -2.07912
LeftFoot  -0.88857 0.764197 -8.28753
LeftToes  2.15783e-011 -7.56106e-012 -8.20802e-012
694
root  -35.467 39.1184 -142.889 9.40676 21.7324 -7.68503
RightUpLeg  -15.9855 -18.6507 -0.769489
RightLeg  37.1214 -10.9879 -9.05248
RightFoot  -5.94751 -0.837797 16.8083
RightToes  4.71047e-010 1.2921e-014 -6.02303e-014
Spine  12.5014 1.63584 -7.40563
Spine1  0.737871 0.338109 3.14534
HEad  -4.16499 49.4047 -11.0195
LeftShoulder1  0.994571 -1.67008 -12.1095
LeftArm  6.12834 -30.3042 2.48758
LeftForeArm  8.71162 -8.5735 -16.2743
LeftHand  0.144035 1.70291 -4.91518
RightShoulder  8.97675 11.6757 51.7651
RightArm  31.3706 -0.21484 14.3271
RightForeArm  -1.07572 20.9659 6.23448
RightHand  0.229427 -0.682569 5.79635
LeftUpLeg  -29.5626 20.7815 7.19084
LeftLeg  17.1644 -5.76508 -2.41438
LeftFoot  -1.55162 0.725345 -8.35198
LeftToes  2.15783e-011 -7.56106e-012 -8.20802e-012
695
root  -35.1412 39.1511 -142.674 9.7831 21.6499 -7.50291
RightUpLeg  -19.1956 -16.5791 0.177211
RightLeg  43.6699 -10.0573 -10.4083
RightFoot  -6.37656 -0.743454 16.0441
RightToes  4.71047e-010 1.2921e-014 -6.02303e-014
Spine  12.9807 1.59362 -7.90004
Spine1  0.40386 0.314669 2.9025
HEad  -3.34826 48.3069 -10.4449
LeftShoulder1  0.981309 -1.62896 -11.9939
LeftArm  13.0076 -29.7675 1.40499
LeftForeArm  6.40458 -10.9797 -15.2773
LeftHand  0.14506 1.2884 -4.3696
RightShoulder  8.57954 11.2554 50.9029
RightArm  32.5457 -0.848522 14.1765
RightForeArm  -4.16446 23.5177 5.26649
RightHand  0.16583 -0.903272 4.46043
LeftUpLeg  -29.2044 20.3621 7.162
LeftLeg  17.3114 -5.14781 -2.72198
LeftFoot  -2.58384 0.672093 -8.56473
LeftToes  2.15783e-011 -7.56106e-012 -8.20802e-012
696
root  -34.8029 39.1516 -142.434 10.1005 21.3522 -6.92848
RightUpLeg  -22.2563 -14.9253 0.579473
RightLeg  49.4085 -8.36249 -10.6455
RightFoot  -6.50256 -0.705173 15.5476
RightToes  4.71047e-010 1.2921e-014 -6.02303e-014
Spine  13.4254 1.41736 -8.52574
Spine1  0.192577 0.142932 2.61452
HEad  -2.28941 47.1994 -9.73681
LeftShoulder1  1.00098 -1.72447 -12.0242
LeftArm  19.4258 -28.2941 0.041402
LeftForeArm  4.81576 -12.3726 -14.6407
LeftHand  0.0806578 -0.12244 -1.69921
RightShoulder  8.25635 10.8909 50.2362
RightArm  31.7608 -1.60247 13.9982
RightForeArm  -7.81053 24.8193 5.70691
RightHand  0.13364 -1.89116 4.85264
LeftUpLeg  -28.6472 20.0095 6.80307
LeftLeg  17.6581 -4.3423 -3.02178
LeftFoot  -3.66093 0.595322 -8.53187
LeftToes  2.15783e-011 -7.56106e-012 -8.20802e-012
697
root  -34.4445 39.15 -142.134 10.3514 20.5195 -6.25185
RightUpLeg  -25.0381 -13.4023 0.815401
RightLeg  53.6674 -6.86407 -10.2888
RightFoot  -6.81262 -0.638509 14.8913
RightToes  4.71047e-010 1.2921e-014 -6.02303e-014
Spine  13.4115 1.22365 -9.12453
Spine1  0.388692 -0.0126845 2.31553
HEad  -1.94125 46.2283 -9.82134
LeftShoulder1  1.03267 -1.64573 -13.0263
LeftArm  26.6252 -26.2263 -1.01162
LeftForeArm  1.5544 -13.4735 -14.2107
LeftHand  0.0705597 0.504295 -1.76131
RightShoulder  7.68014 10.0009 49.8181
RightArm  32.7706 -2.50058 14.0003
RightForeArm  -9.70658 24.9429 5.82695
RightHand  0.0513453 -3.21061 3.79837
LeftUpLeg  -27.6992 19.6359 6.62427
LeftLeg  18.065 -3.11182 -3.31413
LeftFoot  -4.92169 0.513113 -8.61315
LeftToes  2.15783e-011 -7.56106e-012 -8.20802e-012
698
root  -34.0478 39.1929 -141.764 10.3904 19.2313 -5.58369
RightUpLeg  -27.1538 -12.7465 0.99667
RightLeg  55.9879 -5.96184 -9.82782
RightFoot  -7.07424 -0.583029 14.2825
RightToes  4.71047e-010 1.2921e-014 -6.02303e-014
Spine  13.5337 0.973876 -9.27874
Spine1  0.235358 -0.118796 1.65093
HEad  -1.4425 45.6732 -9.69356
LeftShoulder1  1.06629 -1.42474 -14.7617
LeftArm  31.2967 -23.6407 -1.646
LeftForeArm  2.67426 -13.5942 -14.1949
LeftHand  -0.0530082 -0.507182 1.10604
RightShoulder  6.86929 8.57211 49.8374
RightArm  35.5051 -4.23171 13.7995
RightForeArm  -10.8848 24.7753 5.84487
RightHand  0.0485011 -3.28645 3.80342
LeftUpLeg  -25.9208 19.0837 6.76548
LeftLeg  17.853 -1.26765 -3.63664
LeftFoot  -6.00672 0.438217 -8.62346
LeftToes  2.15783e-011 -7.56106e-012 -8.20802e-012
699
root  -33.6405 39.2556 -141.35 10.3868 17.4408 -4.89303
RightUpLeg  -28.9854 -12.8279 1.1802
RightLeg  56.2368 -5.74567 -9.58313
RightFoot  -8.05566 -0.530248 16.4603
RightToes  4.71047e-010 1.2921e-014 -6.02303e-014
Spine  13.3653 0.818852 -9.5661
Spine1  0.271551 -0.182414 1.33992
HEad  -1.1782 45.035 -9.6854
LeftShoulder1  1.10266 -1.12401 -17.148
LeftArm  31.2529 -20.5141 -1.55115
LeftForeArm  4.98043 -12.9671 -14.5372
LeftHand  -0.115156 -0.734545 2.27382
RightShoulder  6.05169 7.17911 49.6392
RightArm  40.5061 -6.41839 13.7548
RightForeArm  -12.4573 23.4888 5.6904
RightHand  0.0816417 -2.43724 3.81447
LeftUpLeg  -23.6653 17.9319 7.12655
LeftLeg  17.2169 1.49569 -3.81035
LeftFoot  -7.10052 0.377334 -9.0306
LeftToes  2.15783e-011 -7.56106e-012 -8.20802e-012
700
root  -33.2106 39.3656 -140.881 10.3387 15.1852 -4.39213
RightUpLeg  -30.6328 -13.4754 1.87724
RightLeg  54.7269 -6.02932 -9.47122
RightFoot  -7.09241 -0.600561 14.805
RightToes  4.71047e-010 1.2921e-014 -6.02303e-014
Spine  13.0549 0.671066 -9.37503
Spine1  0.192871 -0.153769 0.9262
HEad  0.0210747 44.5798 -8.60717
LeftShoulder1  1.0869 -0.706323 -19.2919
LeftArm  29.4683 -17.0779 -1.56666
LeftForeArm  8.23804 -12.4035 -14.6916
LeftHand  -0.287933 -1.40792 5.07163
RightShoulder  5.11698 5.58273 49.3579
RightArm  45.4135 -8.73739 13.6228
RightForeArm  -13.0355 21.916 6.41558
RightHand  0.0948908 -2.37966 4.24783
LeftUpLeg  -20.9097 16.5283 7.64613
LeftLeg  15.8292 4.97943 -3.94562
LeftFoot  -7.98523 0.330117 -9.62158
LeftToes  2.15783e-011 -7.56106e-012 -8.20802e-012
701
root  -32.7855 39.471 -140.345 10.1047 12.8387 -3.76261
RightUpLeg  -31.5725 -14.6766 2.53958
RightLeg  51.2556 -5.90733 -8.18974
RightFoot  -7.28706 -0.604196 15.5721
RightToes  4.71047e-010 1.2921e-014 -6.02303e-014
Spine  12.5134 0.461927 -9.16714
Spine1  0.411396 -0.166382 0.449352
HEad  -0.589021 44.4955 -9.05416
LeftShoulder1  1.02997 -0.319161 -20.4939
LeftArm  24.9572 -13.6296 -2.89315
LeftForeArm  11.9297 -11.3478 -15.0009
LeftHand  -0.42189 -1.37027 7.40357
RightShoulder  4.379 4.28995 49.2592
RightArm  48.1256 -10.9588 12.9478
RightForeArm  -12.4395 20.1614 8.00658
RightHand  0.112801 -2.87428 6.09362
LeftUpLeg  -17.8129 14.3648 7.73007
LeftLeg  14.1208 8.98562 -3.57044
LeftFoot  -8.64568 0.297334 -10.4188
LeftToes  2.15783e-011 -7.56106e-012 -8.20802e-012
702
root  -32.3448 39.5337 -139.773 9.82319 10.3233 -3.11439
RightUpLeg  -32.3082 -16.1405 3.48046
RightLeg  46.5126 -5.66957 -6.67616
RightFoot  -7.04349 -0.609065 14.8699
RightToes  4.71047e-010 1.2921e-014 -6.02303e-014
Spine  11.9146 0.299793 -8.75559
Spine1  0.601662 -0.181006 0.305013
HEad  -0.528089 44.7146 -9.41471
LeftShoulder1  0.993835 -0.0562416 -21.5296
LeftArm  16.0952 -10.5065 -4.9785
LeftForeArm  17.4022 -10.3003 -14.8767
LeftHand  -0.465442 -1.59695 7.90531
RightShoulder  3.68986 3.11733 48.8772
RightArm  46.7166 -12.5044 12.2077
RightForeArm  -2.51756 15.5254 12.1037
RightHand  0.0788216 -1.25932 2.43706
LeftUpLeg  -14.7884 13.7161 7.09359
LeftLeg  12.3976 11.7827 -3.3308
LeftFoot  -9.22605 0.250273 -10.5467
LeftToes  2.15783e-011 -7.56106e-012 -8.20802e-012
703
root  -31.9022 39.573 -139.161 9.47304 8.02899 -2.36056
RightUpLeg  -32.5234 -17.8408 4.64569
RightLeg  40.4983 -5.82634 -5.57807
RightFoot  -6.8672 -0.620977 14.6201
RightToes  4.71047e-010 1.2921e-014 -6.02303e-014
Spine  11.5195 0.0477811 -8.23002
Spine1  0.531968 -0.331097 0.314972
HEad  0.00759294 44.6956 -9.65331
LeftShoulder1  0.983939 0.109168 -22.6605
LeftArm  9.45778 -8.39359 -7.52269
LeftForeArm  21.1425 -10.6856 -13.9447
LeftHand  -0.454181 -1.26229 8.07948
RightShoulder  3.13161 2.15819 48.5327
RightArm  43.6482 -13.4676 11.1518
RightForeArm  3.39402 10.9813 15.3521
RightHand  0.0999537 -1.41022 3.18007
LeftUpLeg  -11.7854 12.9267 6.05983
LeftLeg  10.6702 14.231 -2.974
LeftFoot  -9.76574 0.210682 -11.0514
LeftToes  2.15783e-011 -7.56106e-012 -8.20802e-012
